<svg xmlns="http://www.w3.org/2000/svg" xml:space="preserve" width="1000" height="1000"><rect width="100%" height="100%" fill="transparent"/><path d="M69.895 71.865a.304.304 0 0 1-.431 0l-2.175-2.175a.304.304 0 0 1 0-.432l.488-.488c.12-.12.312-.12.432 0l1.47 1.47 1.471-1.47c.12-.12.311-.12.431 0l.489.488c.12.12.12.312 0 .431l-2.175 2.176Zm3.464-1.931a3.68 3.68 0 0 0-7.359 0 3.68 3.68 0 0 0 7.359 0Z" style="stroke:none;stroke-width:1;stroke-dasharray:none;stroke-linecap:butt;stroke-dashoffset:0;stroke-linejoin:miter;stroke-miterlimit:4;is-custom-font:none;font-file-url:none;fill:#ffa3a6;fill-rule:nonzero;opacity:1" transform="translate(-8108.153 -8139.606) scale(123.5396)" vector-effect="non-scaling-stroke"/></svg>