<svg xmlns="http://www.w3.org/2000/svg" xml:space="preserve" width="1000" height="1000"><rect width="100%" height="100%" fill="transparent"/><path d="M71.581 71.098a.304.304 0 0 1-.43 0l-1.472-1.47-1.47 1.47a.304.304 0 0 1-.432 0l-.488-.489a.304.304 0 0 1 0-.43l2.175-2.176c.12-.12.311-.12.43 0l2.176 2.175c.12.12.12.312 0 .431l-.489.489Zm1.778-1.164a3.68 3.68 0 0 0-7.359 0 3.68 3.68 0 0 0 7.359 0Z" style="stroke:none;stroke-width:1;stroke-dasharray:none;stroke-linecap:butt;stroke-dashoffset:0;stroke-linejoin:miter;stroke-miterlimit:4;is-custom-font:none;font-file-url:none;fill:#b1ffc2;fill-rule:nonzero;opacity:1" transform="translate(-8108.153 -8139.606) scale(123.5396)" vector-effect="non-scaling-stroke"/></svg>