<svg width="57" height="57" viewBox="0 0 57 57" fill="none" xmlns="http://www.w3.org/2000/svg">
<g clip-path="url(#clip0_4864_83)">
<path d="M7.91275 27.424C7.41384 27.424 6.89276 27.2911 6.37168 27.0253C4.47584 26.0617 3.26738 24.5886 2.76847 22.6503C2.28065 22.4953 1.89261 22.1408 1.6487 21.5981C1.26067 20.7453 1.09436 19.837 1.1498 18.9067C1.19415 18.2753 1.51566 17.788 2.01457 17.5665C1.95913 16.4921 1.95913 15.4399 2.31391 14.3877C2.77956 12.97 3.81063 12.106 5.28517 11.8624C5.46256 11.8402 5.61778 11.8181 5.76191 11.807C6.07234 11.1535 6.68211 10.8323 7.60232 10.8545H7.71318C9.48707 10.9652 10.9838 11.5855 12.1701 12.7152C13.4894 13.9668 14.0327 15.595 13.7998 17.5554C14.0105 17.6551 14.1657 17.7769 14.2766 17.8988C14.587 18.231 14.7311 18.6962 14.709 19.2722C14.6757 20.0586 14.5427 20.8006 14.2987 21.4652C14.1768 21.8086 13.8331 22.5174 13.0459 22.6946C12.4583 24.8544 11.1057 26.3718 8.99925 27.2136C8.63339 27.3576 8.27861 27.424 7.91275 27.424ZM2.70195 18.962C2.70195 18.9731 2.70195 18.9842 2.70195 18.9953C2.6576 19.6709 2.77956 20.3244 3.06781 20.9446C3.1676 21.1551 3.2452 21.1662 3.28955 21.1662C3.52237 21.1772 4.07671 21.2991 4.23193 22.0301C4.57562 23.6582 5.50691 24.8323 7.08124 25.6297C7.58014 25.8845 8.00144 25.9288 8.41165 25.7627C10.1412 25.076 11.1834 23.8465 11.6047 22.0079C11.782 21.1994 12.3918 21.1551 12.6357 21.1662C12.669 21.1662 12.6912 21.1662 12.6912 21.1662C12.6912 21.1662 12.7577 21.1218 12.8242 20.9225C13.0127 20.3908 13.1235 19.826 13.1457 19.1946C13.1457 19.0728 13.1346 18.9842 13.1235 18.951C13.1125 18.951 13.0792 18.9399 13.057 18.9399C12.6579 18.9288 12.4362 18.7184 12.3475 18.5965C12.2255 18.4415 12.1036 18.1757 12.1923 17.788C12.2033 17.7658 12.2033 17.7326 12.2033 17.6994C12.2033 17.6662 12.2144 17.6329 12.2144 17.5997C12.4583 16.0158 12.0925 14.7753 11.0947 13.8117C10.1745 12.9367 9.0436 12.4716 7.63558 12.3829C7.6134 12.3829 7.58014 12.3829 7.55797 12.3829C7.23645 12.3719 7.18102 12.4272 7.18102 12.4272C7.18102 12.4272 7.14776 12.4605 7.12558 12.5823C7.10341 12.7041 6.92602 13.3133 6.16103 13.3133C6.14995 13.3133 6.13886 13.3133 6.12777 13.3133C5.95038 13.3133 5.76191 13.3355 5.52908 13.3687C4.60888 13.5127 4.07671 13.9668 3.78846 14.8418C3.48911 15.7389 3.52237 16.6915 3.58889 17.7658C3.63324 18.663 3.06781 18.8956 2.70195 18.962ZM13.7111 18.1313C13.7111 18.1424 13.7111 18.1424 13.7111 18.1313C13.7111 18.1424 13.7111 18.1424 13.7111 18.1313Z" fill="#D51820"/>
<path d="M1.97055 40.0949H0.418396V31.0237L4.97507 27.6677V25.818H6.52722V28.4541L1.97055 31.8101V40.0949Z" fill="#D51820"/>
<path d="M49.4222 27.424C48.9233 27.424 48.4022 27.2911 47.8811 27.0253C45.9853 26.0617 44.7768 24.5886 44.2779 22.6503C43.7901 22.4953 43.4021 22.1408 43.1582 21.5981C42.7701 20.7453 42.6038 19.837 42.6593 18.9067C42.7036 18.2753 43.0251 17.788 43.524 17.5665C43.4686 16.4921 43.4686 15.4399 43.8234 14.3877C44.289 12.97 45.3201 12.106 46.7946 11.8624C46.972 11.8402 47.1272 11.8181 47.2714 11.807C47.5818 11.1535 48.1916 10.8323 49.1118 10.8545H49.2226C50.9965 10.9652 52.4933 11.5855 53.6795 12.7152C54.9989 13.9668 55.5421 15.595 55.3093 17.5554C55.52 17.6551 55.6752 17.7769 55.786 17.8988C56.0965 18.231 56.2406 18.6962 56.2184 19.2722C56.1852 20.0586 56.0521 20.8006 55.8082 21.4652C55.6863 21.8086 55.3426 22.5174 54.5554 22.6946C53.9678 24.8544 52.6152 26.3718 50.5087 27.2136C50.1429 27.3576 49.777 27.424 49.4222 27.424ZM44.2003 18.962C44.2003 18.9731 44.2003 18.9842 44.2003 18.9953C44.156 19.6709 44.2779 20.3244 44.5662 20.9446C44.666 21.1551 44.7436 21.1662 44.7879 21.1662C45.0207 21.1772 45.5751 21.2991 45.7303 22.0301C46.074 23.6582 47.0053 24.8323 48.5796 25.6297C49.0785 25.8845 49.4998 25.9288 49.91 25.7627C51.6396 25.076 52.6817 23.8465 53.103 22.0079C53.2804 21.1994 53.8902 21.1551 54.1341 21.1662C54.1674 21.1662 54.1895 21.1662 54.1895 21.1662C54.1895 21.1662 54.2561 21.1218 54.3226 20.9225C54.5111 20.3908 54.6219 19.826 54.6441 19.1946C54.6441 19.0728 54.633 18.9842 54.6219 18.951C54.6108 18.951 54.5776 18.9399 54.5554 18.9399C54.1563 18.9288 53.9345 18.7184 53.8458 18.5965C53.7239 18.4415 53.6019 18.1757 53.6906 17.788C53.7017 17.7658 53.7017 17.7326 53.7017 17.6994C53.7017 17.6662 53.7128 17.6329 53.7128 17.5997C53.9567 16.0048 53.5908 14.7753 52.593 13.8117C51.6728 12.9367 50.542 12.4716 49.134 12.3829C49.1118 12.3829 49.0785 12.3829 49.0563 12.3829C48.7348 12.3719 48.6794 12.4272 48.6794 12.4272C48.6794 12.4272 48.6461 12.4605 48.624 12.5823C48.6018 12.7041 48.4133 13.3244 47.6483 13.3133C47.4709 13.3133 47.2714 13.3244 47.0275 13.3687C46.1073 13.5127 45.5751 13.9668 45.2868 14.8418C44.9875 15.7389 45.0207 16.6915 45.0873 17.7658C45.1316 18.663 44.5662 18.8956 44.2003 18.962ZM55.2095 18.1313C55.2095 18.1424 55.2095 18.1424 55.2095 18.1313C55.2095 18.1424 55.2095 18.1424 55.2095 18.1313ZM54.6108 17.4003C54.6219 17.4003 54.6219 17.4003 54.6108 17.4003C54.6219 17.4003 54.6219 17.4003 54.6108 17.4003Z" fill="#D51820"/>
<path d="M56.884 40.0949H55.3319V31.8101L50.7752 28.4541V25.818H52.3274V27.6677L56.884 31.0237V40.0949Z" fill="#D51820"/>
<path d="M28.5686 26.6265C27.7703 26.6265 26.9499 26.4272 26.1073 26.0284C22.7702 24.4557 20.6858 22.0079 19.9098 18.7516C19.0561 18.6186 18.3687 18.087 17.9474 17.2231C17.2822 15.8718 17.005 14.4319 17.0937 12.9588C17.1602 11.962 17.7368 11.2532 18.6681 11.0316C18.5572 9.14873 18.5128 7.3212 19.1448 5.51582C19.9098 3.32279 21.5395 2.03798 23.9675 1.67248C24.411 1.60602 24.7991 1.57279 25.1538 1.56172C25.7636 -0.0442905 27.3601 -0.0110628 27.992 1.30953e-05C28.0142 1.30953e-05 28.0364 1.30953e-05 28.0697 1.30953e-05H28.1473H28.1694C31.2183 0.177228 33.6907 1.14083 35.7306 2.94621C38.0367 4.99526 38.9458 7.70886 38.4136 11.0095C38.8571 11.1092 39.223 11.3085 39.5001 11.6187C39.9214 12.0728 40.121 12.7152 40.0767 13.5126C40.0212 14.7753 39.7773 15.9604 39.3671 17.0348C39.1232 17.6772 38.5245 18.6962 37.2052 18.7848C36.2628 22.4066 33.9235 24.943 30.2427 26.3164C29.6994 26.5269 29.1451 26.6265 28.5686 26.6265ZM25.3756 3.11235C25.0319 3.11235 24.6549 3.14558 24.2004 3.21203C22.3267 3.48893 21.1848 4.38608 20.6082 6.03639C20.0539 7.60917 20.1093 9.25949 20.2202 11.087C20.2424 11.3971 20.2978 12.3497 19.1004 12.5269C18.8233 12.5712 18.657 12.6598 18.6348 13.0585C18.5572 14.2658 18.79 15.4288 19.3333 16.5364C19.6215 17.1234 19.9874 17.212 20.2424 17.2342C20.6637 17.2563 21.1958 17.4557 21.3732 18.2642C22.0274 21.144 23.7791 23.2262 26.7614 24.6329C27.8257 25.1313 28.7792 25.2088 29.6772 24.8765C32.9589 23.6471 34.9324 21.4762 35.7306 18.2421C35.8969 17.5443 36.3071 17.212 36.9391 17.2452C37.2495 17.2674 37.6154 17.2231 37.9037 16.481C38.2695 15.5506 38.458 14.5538 38.5134 13.4462C38.5245 13.0807 38.4691 12.8038 38.3471 12.6709C38.2473 12.5601 38.0478 12.4937 37.7706 12.4826C37.3271 12.4715 37.0832 12.2611 36.9502 12.0949C36.8171 11.9288 36.6841 11.6297 36.795 11.1756C36.8061 11.1313 36.8171 11.0649 36.8282 10.9984C36.8393 10.9541 36.8393 10.8987 36.8504 10.8544C37.3271 8.03006 36.6176 5.82595 34.6774 4.10918C32.9368 2.54748 30.7748 1.71678 28.1029 1.55064H28.0807C28.0364 1.55064 28.0031 1.55064 27.9588 1.55064C26.9055 1.52849 26.6838 1.75001 26.5619 2.30381C26.5064 2.54748 26.2847 3.11235 25.431 3.11235C25.4088 3.11235 25.3867 3.11235 25.3756 3.11235Z" fill="#D51820"/>
<path d="M52.1723 56.465L46.9615 33.1058C44.0789 31.9982 33.4245 27.9777 33.3137 27.9334L32.8148 27.7451V23.4033H34.3669V26.6707C36.6508 27.5346 46.0302 31.0789 47.915 31.8099L48.303 31.965L53.6912 56.1327L52.1723 56.465Z" fill="#D51820"/>
<path d="M5.25327 56.465L3.73438 56.1327L9.11147 31.965L9.49951 31.8099C11.3843 31.0789 20.7859 27.5346 23.0698 26.6707V23.4033H24.6219V27.7451L24.123 27.9334C24.0121 27.9777 13.3355 31.9982 10.453 33.1058L5.25327 56.465Z" fill="#D51820"/>
<path d="M17.1939 47.4381H15.6417V56.2989H17.1939V47.4381Z" fill="#D51820"/>
<path d="M40.0872 47.4381H38.5351V56.2989H40.0872V47.4381Z" fill="#D51820"/>
<path d="M28.5686 36.2071L23.1915 27.6233L24.4997 26.8036L28.6018 33.3384L32.9368 26.7815L34.2339 27.6454L28.5686 36.2071Z" fill="#D51820"/>
</g>
<defs>
<clipPath id="clip0_4864_83">
<rect width="56.4651" height="56.4651" fill="white" transform="translate(0.419922)"/>
</clipPath>
</defs>
</svg>
