<svg width="16" height="16" viewBox="0 0 16 16" fill="none" xmlns="http://www.w3.org/2000/svg">
<path d="M9.53237 10.03C10.0346 9.52778 10.2857 8.92175 10.2857 8.21193C10.2857 7.50211 10.0346 6.89608 9.53237 6.39385C9.03013 5.89162 8.42411 5.6405 7.71429 5.6405C7.00446 5.6405 6.39844 5.89162 5.89621 6.39385C5.39397 6.89608 5.14286 7.50211 5.14286 8.21193C5.14286 8.92175 5.39397 9.52778 5.89621 10.03C6.39844 10.5322 7.00446 10.7834 7.71429 10.7834C8.42411 10.7834 9.03013 10.5322 9.53237 10.03ZM10.5167 5.40948C11.2868 6.17957 11.6719 7.11372 11.6719 8.21193C11.6719 9.31015 11.2868 10.2443 10.5167 11.0144C9.74665 11.7845 8.8125 12.1695 7.71429 12.1695C6.61607 12.1695 5.68192 11.7845 4.91183 11.0144C4.14174 10.2443 3.7567 9.31015 3.7567 8.21193C3.7567 7.11372 4.14174 6.17957 4.91183 5.40948C5.68192 4.63939 6.61607 4.25434 7.71429 4.25434C8.8125 4.25434 9.74665 4.63939 10.5167 5.40948ZM12.4855 3.44073C12.6663 3.62153 12.7567 3.83916 12.7567 4.09363C12.7567 4.34809 12.6663 4.56573 12.4855 4.74653C12.3047 4.92733 12.0871 5.01773 11.8326 5.01773C11.5781 5.01773 11.3605 4.92733 11.1797 4.74653C10.9989 4.56573 10.9085 4.34809 10.9085 4.09363C10.9085 3.83916 10.9989 3.62153 11.1797 3.44073C11.3605 3.25992 11.5781 3.16952 11.8326 3.16952C12.0871 3.16952 12.3047 3.25992 12.4855 3.44073ZM8.47768 1.88381C8.01563 1.88381 7.76116 1.88381 7.71429 1.88381C7.66741 1.88381 7.4096 1.88381 6.94085 1.88381C6.47879 1.87711 6.12723 1.87711 5.88616 1.88381C5.64509 1.88381 5.32031 1.89385 4.91183 1.91394C4.51004 1.92733 4.16518 1.96081 3.87723 2.01439C3.59598 2.06126 3.35826 2.12153 3.16406 2.19519C2.82924 2.32912 2.5346 2.52331 2.28013 2.77778C2.02567 3.03224 1.83147 3.32689 1.69754 3.66171C1.62388 3.8559 1.56027 4.09698 1.5067 4.38492C1.45982 4.66617 1.42634 5.01104 1.40625 5.41952C1.39286 5.82131 1.38281 6.14273 1.37612 6.38381C1.37612 6.62488 1.37612 6.97979 1.37612 7.44854C1.38281 7.91059 1.38616 8.16506 1.38616 8.21193C1.38616 8.25881 1.38281 8.51662 1.37612 8.98537C1.37612 9.44742 1.37612 9.79898 1.37612 10.0401C1.38281 10.2811 1.39286 10.6059 1.40625 11.0144C1.42634 11.4162 1.45982 11.761 1.5067 12.049C1.56027 12.3302 1.62388 12.568 1.69754 12.7622C1.83147 13.097 2.02567 13.3916 2.28013 13.6461C2.5346 13.9005 2.82924 14.0947 3.16406 14.2287C3.35826 14.3023 3.59598 14.3659 3.87723 14.4195C4.16518 14.4664 4.51004 14.4999 4.91183 14.52C5.32031 14.5334 5.64509 14.5434 5.88616 14.5501C6.12723 14.5501 6.47879 14.5501 6.94085 14.5501C7.4096 14.5434 7.66741 14.5401 7.71429 14.5401C7.76116 14.5401 8.01563 14.5434 8.47768 14.5501C8.94643 14.5501 9.30134 14.5501 9.54241 14.5501C9.78348 14.5434 10.1049 14.5334 10.5067 14.52C10.9152 14.4999 11.26 14.4664 11.5413 14.4195C11.8292 14.3659 12.0703 14.3023 12.2645 14.2287C12.5993 14.0947 12.894 13.9005 13.1484 13.6461C13.4029 13.3916 13.5971 13.097 13.731 12.7622C13.8047 12.568 13.865 12.3302 13.9118 12.049C13.9654 11.761 13.9989 11.4162 14.0123 11.0144C14.0324 10.6059 14.0424 10.2811 14.0424 10.0401C14.0491 9.79898 14.0491 9.44742 14.0424 8.98537C14.0424 8.51662 14.0424 8.25881 14.0424 8.21193C14.0424 8.16506 14.0424 7.91059 14.0424 7.44854C14.0491 6.97979 14.0491 6.62488 14.0424 6.38381C14.0424 6.14273 14.0324 5.82131 14.0123 5.41952C13.9989 5.01104 13.9654 4.66617 13.9118 4.38492C13.865 4.09698 13.8047 3.8559 13.731 3.66171C13.5971 3.32689 13.4029 3.03224 13.1484 2.77778C12.894 2.52331 12.5993 2.32912 12.2645 2.19519C12.0703 2.12153 11.8292 2.06126 11.5413 2.01439C11.26 1.96081 10.9152 1.92733 10.5067 1.91394C10.1049 1.89385 9.78348 1.88381 9.54241 1.88381C9.30134 1.87711 8.94643 1.87711 8.47768 1.88381ZM15.3783 5.02778C15.4118 5.61707 15.4286 6.67845 15.4286 8.21193C15.4286 9.74541 15.4118 10.8068 15.3783 11.3961C15.3114 12.7889 14.8962 13.8671 14.1328 14.6305C13.3694 15.3939 12.2913 15.809 10.8984 15.876C10.3092 15.9095 9.24777 15.9262 7.71429 15.9262C6.1808 15.9262 5.11942 15.9095 4.53013 15.876C3.13728 15.809 2.05915 15.3939 1.29576 14.6305C0.532366 13.8671 0.117188 12.7889 0.0502232 11.3961C0.0167411 10.8068 0 9.74541 0 8.21193C0 6.67845 0.0167411 5.61707 0.0502232 5.02778C0.117188 3.63492 0.532366 2.5568 1.29576 1.7934C2.05915 1.03001 3.13728 0.614833 4.53013 0.547869C5.11942 0.514386 6.1808 0.497645 7.71429 0.497645C9.24777 0.497645 10.3092 0.514386 10.8984 0.547869C12.2913 0.614833 13.3694 1.03001 14.1328 1.7934C14.8962 2.5568 15.3114 3.63492 15.3783 5.02778Z" fill="#BDBDBD"/>
</svg>
