<svg width="16" height="16" viewBox="0 0 16 16" fill="none" xmlns="http://www.w3.org/2000/svg">
<path d="M3.50558 5.48983V15.4441H0.190848V5.48983H3.50558ZM3.71652 2.41617C3.72321 2.90501 3.55246 3.31349 3.20424 3.64162C2.86272 3.96974 2.41071 4.13381 1.84821 4.13381H1.82813C1.27902 4.13381 0.837054 3.96974 0.502232 3.64162C0.167411 3.31349 0 2.90501 0 2.41617C0 1.92064 0.170759 1.51215 0.512277 1.19073C0.860491 0.862601 1.3125 0.698538 1.8683 0.698538C2.42411 0.698538 2.86942 0.862601 3.20424 1.19073C3.53906 1.51215 3.70982 1.92064 3.71652 2.41617ZM15.4286 9.73872V15.4441H12.1239V10.1204C12.1239 9.41729 11.9866 8.86818 11.7121 8.47309C11.4442 8.07131 11.0223 7.87041 10.4464 7.87041C10.0246 7.87041 9.66964 7.9876 9.3817 8.22198C9.10045 8.44965 8.88951 8.73425 8.74888 9.07577C8.67522 9.27666 8.63839 9.54787 8.63839 9.88939V15.4441H5.33371C5.3471 12.7722 5.35379 10.6059 5.35379 8.94519C5.35379 7.28448 5.35045 6.2934 5.34375 5.97198L5.33371 5.48983H8.63839V6.93626H8.6183C8.75223 6.72198 8.88951 6.53448 9.03013 6.37376C9.17076 6.21305 9.35826 6.03894 9.59263 5.85144C9.83371 5.66394 10.125 5.51997 10.4665 5.41952C10.8147 5.31238 11.1998 5.25881 11.6217 5.25881C12.7667 5.25881 13.6875 5.6405 14.3839 6.4039C15.0804 7.16059 15.4286 8.2722 15.4286 9.73872Z" fill="#BDBDBD"/>
</svg>
