<svg width="17" height="14" viewBox="0 0 17 14" fill="none" xmlns="http://www.w3.org/2000/svg">
<path d="M16.2723 2.31015C15.8237 2.9664 15.2813 3.52555 14.6451 3.9876C14.6518 4.08135 14.6551 4.22198 14.6551 4.40948C14.6551 5.28001 14.5279 6.15055 14.2734 7.02108C14.019 7.88492 13.6306 8.71528 13.1083 9.51215C12.5926 10.309 11.9766 11.0155 11.26 11.6316C10.5435 12.2409 9.67969 12.7298 8.66853 13.0981C7.65737 13.4597 6.57589 13.6405 5.42411 13.6405C3.60938 13.6405 1.94866 13.155 0.441964 12.184C0.676339 12.2108 0.9375 12.2242 1.22545 12.2242C2.73214 12.2242 4.07478 11.7622 5.25335 10.838C4.55022 10.8247 3.92076 10.6104 3.36496 10.1952C2.80915 9.77332 2.42746 9.2376 2.21987 8.58805C2.44085 8.62153 2.64509 8.63827 2.83259 8.63827C3.12054 8.63827 3.40513 8.60144 3.68638 8.52778C2.93638 8.37376 2.31362 8.00211 1.81808 7.41282C1.32924 6.81684 1.08482 6.12711 1.08482 5.34363V5.30345C1.54018 5.55791 2.02902 5.69519 2.55134 5.71528C2.10938 5.42064 1.75781 5.03559 1.49665 4.56015C1.23549 4.0847 1.10491 3.56907 1.10491 3.01327C1.10491 2.42398 1.25223 1.87823 1.54688 1.37599C2.35714 2.37376 3.34152 3.17398 4.5 3.77666C5.66518 4.37265 6.91071 4.70412 8.23661 4.77108C8.18304 4.51662 8.15625 4.26885 8.15625 4.02778C8.15625 3.13046 8.47098 2.36707 9.10045 1.7376C9.73661 1.10144 10.5033 0.78336 11.4007 0.78336C12.3382 0.78336 13.1283 1.12488 13.7712 1.80791C14.5011 1.66729 15.1875 1.40613 15.8304 1.02443C15.5826 1.79452 15.1071 2.3905 14.404 2.81238C15.0268 2.74541 15.6496 2.578 16.2723 2.31015Z" fill="#BDBDBD"/>
</svg>
