<svg width="18" height="14" viewBox="0 0 18 14" fill="none" xmlns="http://www.w3.org/2000/svg">
<path d="M7.14174 9.54229L12.0033 7.03113L7.14174 4.48983V9.54229ZM9 0.883806C10.125 0.883806 11.2098 0.900547 12.2545 0.934029C13.3058 0.960815 14.0759 0.990949 14.5647 1.02443L15.298 1.06461C15.3047 1.06461 15.3616 1.07131 15.4688 1.0847C15.5759 1.0914 15.6529 1.10144 15.6998 1.11483C15.7467 1.12153 15.8237 1.13492 15.9308 1.15501C16.0446 1.1751 16.1417 1.20189 16.2221 1.23537C16.3025 1.26885 16.3962 1.31238 16.5033 1.36595C16.6105 1.41952 16.7143 1.48648 16.8147 1.56684C16.9152 1.6405 17.0123 1.72756 17.106 1.828C17.1462 1.86818 17.1964 1.9318 17.2567 2.01885C17.3237 2.09921 17.4208 2.2934 17.548 2.60144C17.6819 2.90948 17.7723 3.24765 17.8192 3.61595C17.8728 4.04452 17.9129 4.50323 17.9397 4.99206C17.9732 5.47421 17.9933 5.85256 18 6.12711V6.5289V7.89497C18.0067 8.86595 17.9464 9.83693 17.8192 10.8079C17.7723 11.1762 17.6886 11.511 17.5681 11.8124C17.4475 12.107 17.3404 12.3113 17.2467 12.4251L17.106 12.5959C17.0123 12.6963 16.9152 12.7867 16.8147 12.8671C16.7143 12.9407 16.6105 13.0043 16.5033 13.0579C16.3962 13.1048 16.3025 13.145 16.2221 13.1784C16.1417 13.2119 16.0446 13.2387 15.9308 13.2588C15.8237 13.2789 15.7433 13.2956 15.6897 13.309C15.6429 13.3157 15.5658 13.3258 15.4587 13.3392C15.3583 13.3459 15.3047 13.3492 15.298 13.3492C13.6172 13.4764 11.5179 13.5401 9 13.5401C7.61384 13.5267 6.40848 13.5066 5.38393 13.4798C4.36607 13.4463 3.69643 13.4195 3.375 13.3994L2.88281 13.3593L2.52121 13.3191C2.28013 13.2856 2.09598 13.2521 1.96875 13.2186C1.84821 13.1851 1.67746 13.1148 1.45647 13.0077C1.24219 12.9005 1.05469 12.7633 0.893973 12.5959C0.853795 12.5557 0.800223 12.4954 0.733259 12.4151C0.672991 12.328 0.575893 12.1305 0.441964 11.8224C0.314732 11.5144 0.227679 11.1762 0.180804 10.8079C0.127232 10.3793 0.0837054 9.92398 0.0502232 9.44184C0.0234375 8.953 0.00669643 8.57131 0 8.29675V7.89497V6.5289C-0.00669643 5.55791 0.0535714 4.58693 0.180804 3.61595C0.227679 3.24765 0.311384 2.91617 0.43192 2.62153C0.552455 2.32019 0.659598 2.1126 0.753348 1.99876L0.893973 1.828C0.987723 1.72756 1.08482 1.6405 1.18527 1.56684C1.28571 1.48648 1.38951 1.41952 1.49665 1.36595C1.60379 1.31238 1.69754 1.26885 1.7779 1.23537C1.85826 1.20189 1.95201 1.1751 2.05915 1.15501C2.17299 1.13492 2.25335 1.12153 2.30022 1.11483C2.3471 1.10144 2.42411 1.0914 2.53125 1.0847C2.63839 1.07131 2.69531 1.06461 2.70201 1.06461C4.38281 0.944074 6.48214 0.883806 9 0.883806Z" fill="#BDBDBD"/>
</svg>
